<svg xmlns="http://www.w3.org/2000/svg" xmlns:xlink="http://www.w3.org/1999/xlink" width="38" height="38" viewBox="0 0 38 38">
    <defs>
        <circle id="a" cx="18" cy="18" r="18"/>
        <path id="c" d="M1.404.264a6.386 6.386 0 0 0 1.55.198c.478 0 .956-.06 1.433-.176A1 1 0 0 1 5.59 1.522c-.376 1.37-1.274 2.055-2.693 2.055-1.429 0-2.329-.695-2.7-2.084A1 1 0 0 1 1.403.264z"/>
    </defs>
    <g fill="none" fill-rule="evenodd" transform="translate(1 1)">
        <mask id="b" fill="#fff">
            <use xlink:href="#a"/>
        </mask>
        <circle cx="18" cy="18" r="18.5" stroke="#A3AFBC"/>
        <g mask="url(#b)">
            <path fill="#FFF" stroke="#CFD7DE" stroke-linecap="round" stroke-linejoin="round" d="M28.527 28.859c.119.576.18 1.17.18 1.776 0 1.621-.442 3.15-1.227 4.497m-3.102 3.291c-.641.437-1.337.813-2.077 1.118m-3.21.828a12.593 12.593 0 0 1-2.539.039m-3.321-.76a11.507 11.507 0 0 1-2.073-1.044M7.893 35.32a8.913 8.913 0 0 1-1.34-4.684c0-.684.08-1.352.23-1.997"/>
            <g transform="translate(14.677 23.4)">
                <mask id="d" fill="#fff">
                    <use xlink:href="#c"/>
                </mask>
                <use fill="#A3AFBC" xlink:href="#c"/>
                <ellipse cx="2.84" cy="2.885" fill="#CFD7DE" mask="url(#d)" rx="1.25" ry="1.269"/>
            </g>
            <path stroke="#CFD7DE" stroke-linecap="round" stroke-linejoin="round" d="M29.023 18.554c.12-.663-.29-1.491.183-2.044C35.334 9.341 33.184-6.3 18.024-6.3S.606 9.993 6.842 16.51c.578.604.346 1.236 0 2.044M8.77 18.23a5.17 5.17 0 0 0 0 10.34M26.492 18.23a5.17 5.17 0 1 1 0 10.34"/>
            <g transform="translate(23.538 20.446)">
                <circle cx="2.954" cy="2.954" r="2.454" fill="#FFF" stroke="#CFD7DE"/>
                <circle cx="2.954" cy="2.954" r="1.477" fill="#A3AFBC"/>
                <ellipse cx="3.603" cy="2.024" fill="#FFF" rx="1" ry="1.16" transform="rotate(-22 3.603 2.024)"/>
            </g>
            <g transform="translate(5.815 20.446)">
                <circle cx="2.954" cy="2.954" r="2.454" fill="#FFF" stroke="#CFD7DE"/>
                <circle cx="2.954" cy="2.954" r="1.477" fill="#A3AFBC"/>
                <ellipse cx="3.603" cy="2.024" fill="#FFF" rx="1" ry="1.16" transform="rotate(-22 3.603 2.024)"/>
            </g>
        </g>
    </g>
</svg>
