<?xml version="1.0" ?><svg baseProfile="tiny" height="24px" version="1.2" viewBox="0 0 24 24" width="24px" xml:space="preserve" xmlns="http://www.w3.org/2000/svg" xmlns:xlink="http://www.w3.org/1999/xlink"><g id="Layer_1"><path d="M17,4H7C5.346,4,4,5.346,4,7v11c0,1.654,1.346,3,3,3h10c1.654,0,3-1.346,3-3V7C20,5.346,18.654,4,17,4z M18,18   c0,0.551-0.448,1-1,1H7c-0.552,0-1-0.449-1-1v-7.28C6.296,10.894,6.635,11,7,11h1.5c0,1.93,1.57,3.5,3.5,3.5s3.5-1.57,3.5-3.5H17   c0.365,0,0.704-0.106,1-0.279V18z M9.5,11h5c0,1.378-1.121,2.5-2.5,2.5S9.5,12.378,9.5,11z M18,9c0,0.551-0.448,1-1,1H7   c-0.552,0-1-0.449-1-1V7c0-0.551,0.448-1,1-1h10c0.552,0,1,0.449,1,1V9z"/></g></svg>