<svg xmlns="http://www.w3.org/2000/svg" width="24" height="24" viewBox="0 0 24 24">
    <g fill="none" fill-rule="evenodd">
        <circle cx="12" cy="12" r="11" fill="#FFF" stroke="#6354D2" stroke-width="2"/>
        <path fill="#6354D2" d="M11.385 17.727c-2.828 0-4.718-1.428-4.718-4.76 0-4.368 2.828-6.3 6.132-6.3 2.436 0 4.004 1.26 4.004 4.13 0 2.562-1.526 3.99-3.36 3.99-.812 0-1.274-.434-1.302-.896-.28.392-.91.77-1.33.77-.938 0-1.582-.406-1.582-1.904 0-1.694 1.106-2.996 2.87-2.996.546 0 1.092.056 1.834.35l-.336 2.814c-.028.266-.014.56.28.56.518 0 1.498-.84 1.498-2.702 0-2.016-1.092-2.884-2.66-2.884-2.492 0-4.592 1.428-4.592 4.984 0 2.492 1.4 3.528 3.388 3.528.686 0 1.61-.112 2.31-.252l.182 1.19c-1.05.322-1.624.378-2.618.378zm-.154-4.41c.448 0 .672-.224.854-.364l.266-2.044c-.056 0-.154-.014-.224-.014-.798 0-1.288.686-1.288 1.708 0 .406.07.714.392.714z"/>
    </g>
</svg>
