<svg xmlns="http://www.w3.org/2000/svg" width="236" height="28" viewBox="0 0 236 28">
    <g fill="none" fill-rule="evenodd">
        <text fill="#6354D2" font-family="Gilroy-Light, Gilroy" font-size="18" font-weight="300" letter-spacing="1">
            <tspan x="103" y="21">Self.Academy</tspan>
        </text>
        <path fill="#6354D2" d="M92 24a3 3 0 1 1 0-6 3 3 0 0 1 0 6zM54 10a3 3 0 1 1 0-6 3 3 0 0 1 0 6zm24 0a3 3 0 1 1 0-6 3 3 0 0 1 0 6zm-65 0a3 3 0 1 1 0-6 3 3 0 0 1 0 6zm24 0a3 3 0 1 1 0-6 3 3 0 0 1 0 6zm48 0a3 3 0 1 1 0-6 3 3 0 0 1 0 6zm-17 0a3 3 0 1 1 0-6 3 3 0 0 1 0 6zm24 0a3 3 0 1 1 0-6 3 3 0 0 1 0 6zM6 17a3 3 0 1 1 0-6 3 3 0 0 1 0 6zm24 0a3 3 0 1 1 0-6 3 3 0 0 1 0 6zm48 0a3 3 0 1 1 0-6 3 3 0 0 1 0 6zm-41 0a3 3 0 1 1 0-6 3 3 0 0 1 0 6zm24 0a3 3 0 1 1 0-6 3 3 0 0 1 0 6zm-41 0a3 3 0 1 1 0-6 3 3 0 0 1 0 6zm24 0a3 3 0 1 1 0-6 3 3 0 0 1 0 6zm48 0a3 3 0 1 1 0-6 3 3 0 0 1 0 6zm-38 7a3 3 0 1 1 0-6 3 3 0 0 1 0 6zm24 0a3 3 0 1 1 0-6 3 3 0 0 1 0 6zm-65 0a3 3 0 1 1 0-6 3 3 0 0 1 0 6zm24 0a3 3 0 1 1 0-6 3 3 0 0 1 0 6zm48 0a3 3 0 1 1 0-6 3 3 0 0 1 0 6zm-17 0a3 3 0 1 1 0-6 3 3 0 0 1 0 6z"/>
        <path fill="#CFD7DE" d="M44 23a2 2 0 1 1 0-4 2 2 0 0 1 0 4zM6 9a2 2 0 1 1 0-4 2 2 0 0 1 0 4zm24 0a2 2 0 1 1 0-4 2 2 0 0 1 0 4zm31 0a2 2 0 1 1 0-4 2 2 0 0 1 0 4zM20 9a2 2 0 1 1 0-4 2 2 0 0 1 0 4zm24 0a2 2 0 1 1 0-4 2 2 0 0 1 0 4zm10 7a2 2 0 1 1 0-4 2 2 0 0 1 0 4zm-41 0a2 2 0 1 1 0-4 2 2 0 0 1 0 4zm72 0a2 2 0 1 1 0-4 2 2 0 0 1 0 4zm-17 0a2 2 0 1 1 0-4 2 2 0 0 1 0 4zM6 23a2 2 0 1 1 0-4 2 2 0 0 1 0 4zm24 0a2 2 0 1 1 0-4 2 2 0 0 1 0 4zm31 0a2 2 0 1 1 0-4 2 2 0 0 1 0 4zm-41 0a2 2 0 1 1 0-4 2 2 0 0 1 0 4z"/>
    </g>
</svg>
