<svg xmlns="http://www.w3.org/2000/svg" xmlns:xlink="http://www.w3.org/1999/xlink" version="1.1" x="0px" y="0px" viewBox="0 0 100 125" enable-background="new 0 0 100 100" xml:space="preserve"><rect x="14.573" y="50.21" width="13.286" height="2.2"/><rect x="14.573" y="55.417" width="13.286" height="2.199"/><polygon points="44.352,56.34 38.609,43.491 36.544,43.491 30.801,56.34 33.3,56.34 37.562,46.435 41.827,56.34 "/><rect x="47.683" y="56.879" width="4.536" height="4.482"/><polygon points="61.447,43.491 55.703,56.34 58.201,56.34 62.465,46.435 66.73,56.34 69.254,56.34 63.512,43.491 "/><rect x="72.17" y="50.21" width="13.287" height="2.2"/><rect x="72.17" y="55.417" width="13.287" height="2.199"/><polygon points="26.396,19.734 24.222,19.734 18.124,33.379 20.741,33.379 25.295,22.802 29.849,33.379 32.495,33.379 "/><polygon points="78.939,33.379 81.584,33.379 75.486,19.734 73.312,19.734 67.215,33.379 69.83,33.379 74.385,22.8 "/><path d="M55.312,63.425c0.531,0.745,1.143,2.585,1.143,3.967c0,2.151-1.223,3.028-2.604,3.028c-2.045,0-2.921-2.151-2.921-3.852  v-1.814h-1.753v1.814c0,2.257-1.037,4.437-3.454,4.463c-1.461,0.025-3.347-0.93-3.347-3.905c0-1.646,0.665-3.674,1.062-4.339  l-1.78-0.637c-0.558,0.851-1.168,3.063-1.168,5.001c0,4.117,2.418,6.296,5.181,6.296c2.417,0,4.011-1.727,4.41-3.852h0.053  c0.77,2.099,2.285,3.188,4.091,3.188c2.098,0,4.117-1.541,4.117-4.94c0-1.86-0.664-4.126-1.33-5.057L55.312,63.425z"/><path d="M14.772,37.214h-2.886C9.385,40.821,6.74,47.312,6.645,56.737c0,9.425,2.74,15.87,5.241,19.525h2.886  c-2.741-4.377-5.001-10.869-5.001-19.478C9.771,48.034,12.031,41.542,14.772,37.214z"/><path d="M63.963,30.712v-2.085c-2.607-1.808-7.303-3.72-14.115-3.79c-6.813,0-11.472,1.981-14.113,3.79v2.085  c3.163-1.981,7.856-3.616,14.079-3.616C56.141,27.097,60.832,28.731,63.963,30.712z"/><path d="M88.111,37.214h-2.885c2.742,4.375,5.002,10.868,5.002,19.476c0,8.752-2.26,15.245-5.002,19.573h2.885  c2.502-3.608,5.148-10.1,5.244-19.525C93.355,47.313,90.613,40.868,88.111,37.214z"/><text x="0" y="115" fill="#000000" font-size="5px" font-weight="bold" font-family="'Helvetica Neue', Helvetica, Arial-Unicode, Arial, Sans-serif">Created by Matt Wasser</text><text x="0" y="120" fill="#000000" font-size="5px" font-weight="bold" font-family="'Helvetica Neue', Helvetica, Arial-Unicode, Arial, Sans-serif">from the Noun Project</text></svg>