<svg xmlns="http://www.w3.org/2000/svg" width="24" height="24" viewBox="0 0 24 24">
    <g fill="none" fill-rule="evenodd">
        <circle cx="12" cy="12" r="11" fill="#FFF" stroke="#6354D2" stroke-width="2"/>
        <path fill="#6354D2" d="M11.734 14.916l-1.73 1.579s-.136.102-.284.038l.329-2.907-1.584-.765-2.679-.902s-.41-.146-.45-.464c-.04-.318.464-.49.464-.49l10.648-4.178s.876-.384.876.252l-1.897 9.561s-.265.663-.994.345l-2.699-2.069z"/>
        <path fill="#FFF" d="M9.72 16.533s-.128-.012-.287-.516c-.159-.504-.968-3.156-.968-3.156l6.432-4.085s.371-.225.358 0c0 0 .066.04-.133.226S10.07 13.55 10.07 13.55"/>
        <path stroke="#6354D2" stroke-linecap="round" stroke-linejoin="round" d="M8.478 12.335l1.274 3.898"/>
    </g>
</svg>
